<mxfile host="app.diagrams.net" agent="Mozilla/5.0 (Windows NT 10.0; Win64; x64) AppleWebKit/537.36 (KHTML, like Gecko) Chrome/134.0.0.0 Safari/537.36 Edg/134.0.0.0" version="26.1.0" pages="4">
  <diagram name="Página-1" id="aqy9BPC_XhF1ZGDQiCtF">
    <mxGraphModel dx="1158" dy="632" grid="1" gridSize="10" guides="1" tooltips="1" connect="1" arrows="1" fold="1" page="1" pageScale="1" pageWidth="827" pageHeight="1169" math="0" shadow="0">
      <root>
        <mxCell id="0" />
        <mxCell id="1" parent="0" />
        <mxCell id="k7WuHDo5Gts1MNenLpMI-1" value="Actor" style="shape=umlActor;verticalLabelPosition=bottom;verticalAlign=top;html=1;outlineConnect=0;labelBackgroundColor=none;" vertex="1" parent="1">
          <mxGeometry x="180" y="150" width="30" height="60" as="geometry" />
        </mxCell>
        <mxCell id="k7WuHDo5Gts1MNenLpMI-7" value="fazer reserva" style="ellipse;whiteSpace=wrap;html=1;labelBackgroundColor=none;" vertex="1" parent="1">
          <mxGeometry x="320" y="70" width="142.5" height="80" as="geometry" />
        </mxCell>
        <mxCell id="k7WuHDo5Gts1MNenLpMI-10" value="cancelar reserva" style="ellipse;whiteSpace=wrap;html=1;labelBackgroundColor=none;" vertex="1" parent="1">
          <mxGeometry x="360" y="310" width="140" height="80" as="geometry" />
        </mxCell>
        <mxCell id="k7WuHDo5Gts1MNenLpMI-14" value="" style="endArrow=classic;html=1;rounded=0;entryX=0.281;entryY=0.875;entryDx=0;entryDy=0;entryPerimeter=0;exitX=1;exitY=0.3333333333333333;exitDx=0;exitDy=0;exitPerimeter=0;labelBackgroundColor=none;fontColor=default;" edge="1" parent="1" source="k7WuHDo5Gts1MNenLpMI-1" target="k7WuHDo5Gts1MNenLpMI-7">
          <mxGeometry width="50" height="50" relative="1" as="geometry">
            <mxPoint x="210" y="190" as="sourcePoint" />
            <mxPoint x="260" y="140" as="targetPoint" />
          </mxGeometry>
        </mxCell>
        <mxCell id="k7WuHDo5Gts1MNenLpMI-16" value="" style="endArrow=classic;html=1;rounded=0;exitX=1;exitY=1;exitDx=0;exitDy=0;exitPerimeter=0;entryX=-0.015;entryY=0.376;entryDx=0;entryDy=0;entryPerimeter=0;labelBackgroundColor=none;fontColor=default;" edge="1" parent="1" source="k7WuHDo5Gts1MNenLpMI-1" target="k7WuHDo5Gts1MNenLpMI-10">
          <mxGeometry width="50" height="50" relative="1" as="geometry">
            <mxPoint x="410" y="280" as="sourcePoint" />
            <mxPoint x="460" y="230" as="targetPoint" />
          </mxGeometry>
        </mxCell>
      </root>
    </mxGraphModel>
  </diagram>
  <diagram id="cos-rvjo7iSo4qDzgaSY" name="Página-2">
    <mxGraphModel dx="1042" dy="569" grid="1" gridSize="10" guides="1" tooltips="1" connect="1" arrows="1" fold="1" page="1" pageScale="1" pageWidth="827" pageHeight="1169" math="0" shadow="0">
      <root>
        <mxCell id="0" />
        <mxCell id="1" parent="0" />
        <mxCell id="cezJMG4lq_--6rtQeQaW-1" value="Actor" style="shape=umlActor;verticalLabelPosition=bottom;verticalAlign=top;html=1;outlineConnect=0;labelBackgroundColor=none;fillColor=#FAE5C7;strokeColor=#0F8B8D;fontColor=#143642;" vertex="1" parent="1">
          <mxGeometry x="110" y="380" width="30" height="50" as="geometry" />
        </mxCell>
        <mxCell id="cezJMG4lq_--6rtQeQaW-2" value="" style="swimlane;startSize=0;labelBackgroundColor=none;fillColor=#FAE5C7;strokeColor=#0F8B8D;fontColor=#143642;" vertex="1" parent="1">
          <mxGeometry x="220" y="10" width="280" height="540" as="geometry" />
        </mxCell>
        <mxCell id="cezJMG4lq_--6rtQeQaW-3" value="Checar saldo" style="ellipse;whiteSpace=wrap;html=1;labelBackgroundColor=none;fillColor=#FAE5C7;strokeColor=#0F8B8D;fontColor=#143642;" vertex="1" parent="cezJMG4lq_--6rtQeQaW-2">
          <mxGeometry x="75" y="20" width="130" height="60" as="geometry" />
        </mxCell>
        <mxCell id="cezJMG4lq_--6rtQeQaW-5" value="Depositar" style="ellipse;whiteSpace=wrap;html=1;labelBackgroundColor=none;fillColor=#FAE5C7;strokeColor=#0F8B8D;fontColor=#143642;" vertex="1" parent="cezJMG4lq_--6rtQeQaW-2">
          <mxGeometry x="75" y="90" width="130" height="60" as="geometry" />
        </mxCell>
        <mxCell id="cezJMG4lq_--6rtQeQaW-6" value="Sacar" style="ellipse;whiteSpace=wrap;html=1;labelBackgroundColor=none;fillColor=#FAE5C7;strokeColor=#0F8B8D;fontColor=#143642;" vertex="1" parent="cezJMG4lq_--6rtQeQaW-2">
          <mxGeometry x="75" y="170" width="130" height="60" as="geometry" />
        </mxCell>
        <mxCell id="cezJMG4lq_--6rtQeQaW-7" value="Trasferir" style="ellipse;whiteSpace=wrap;html=1;labelBackgroundColor=none;fillColor=#FAE5C7;strokeColor=#0F8B8D;fontColor=#143642;" vertex="1" parent="cezJMG4lq_--6rtQeQaW-2">
          <mxGeometry x="75" y="250" width="130" height="60" as="geometry" />
        </mxCell>
        <mxCell id="cezJMG4lq_--6rtQeQaW-8" value="Manutenção" style="ellipse;whiteSpace=wrap;html=1;labelBackgroundColor=none;fillColor=#FAE5C7;strokeColor=#0F8B8D;fontColor=#143642;" vertex="1" parent="cezJMG4lq_--6rtQeQaW-2">
          <mxGeometry x="75" y="390" width="130" height="60" as="geometry" />
        </mxCell>
        <mxCell id="cezJMG4lq_--6rtQeQaW-9" value="Reparo" style="ellipse;whiteSpace=wrap;html=1;labelBackgroundColor=none;fillColor=#FAE5C7;strokeColor=#0F8B8D;fontColor=#143642;" vertex="1" parent="cezJMG4lq_--6rtQeQaW-2">
          <mxGeometry x="75" y="470" width="130" height="60" as="geometry" />
        </mxCell>
        <mxCell id="cezJMG4lq_--6rtQeQaW-10" value="ombrosio" style="shape=umlActor;verticalLabelPosition=bottom;verticalAlign=top;html=1;outlineConnect=0;labelBackgroundColor=none;fillColor=#FAE5C7;strokeColor=#0F8B8D;fontColor=#143642;" vertex="1" parent="1">
          <mxGeometry x="610" y="240" width="30" height="60" as="geometry" />
        </mxCell>
        <mxCell id="cezJMG4lq_--6rtQeQaW-12" value="jurubeba" style="shape=umlActor;verticalLabelPosition=bottom;verticalAlign=top;html=1;outlineConnect=0;labelBackgroundColor=none;fillColor=#FAE5C7;strokeColor=#0F8B8D;fontColor=#143642;" vertex="1" parent="1">
          <mxGeometry x="110" y="140" width="30" height="60" as="geometry" />
        </mxCell>
        <mxCell id="cezJMG4lq_--6rtQeQaW-14" value="" style="endArrow=none;html=1;rounded=0;entryX=0.038;entryY=0.833;entryDx=0;entryDy=0;entryPerimeter=0;labelBackgroundColor=none;strokeColor=#A8201A;fontColor=default;" edge="1" parent="1" target="cezJMG4lq_--6rtQeQaW-3">
          <mxGeometry width="50" height="50" relative="1" as="geometry">
            <mxPoint x="160" y="160" as="sourcePoint" />
            <mxPoint x="280" y="90" as="targetPoint" />
          </mxGeometry>
        </mxCell>
        <mxCell id="cezJMG4lq_--6rtQeQaW-15" value="" style="endArrow=none;html=1;rounded=0;entryX=0.038;entryY=0.5;entryDx=0;entryDy=0;entryPerimeter=0;labelBackgroundColor=none;strokeColor=#A8201A;fontColor=default;" edge="1" parent="1" target="cezJMG4lq_--6rtQeQaW-5">
          <mxGeometry width="50" height="50" relative="1" as="geometry">
            <mxPoint x="170" y="170" as="sourcePoint" />
            <mxPoint x="310" y="90" as="targetPoint" />
          </mxGeometry>
        </mxCell>
        <mxCell id="cezJMG4lq_--6rtQeQaW-16" value="" style="endArrow=none;html=1;rounded=0;entryX=0.038;entryY=0.333;entryDx=0;entryDy=0;entryPerimeter=0;labelBackgroundColor=none;strokeColor=#A8201A;fontColor=default;" edge="1" parent="1" target="cezJMG4lq_--6rtQeQaW-6">
          <mxGeometry width="50" height="50" relative="1" as="geometry">
            <mxPoint x="170" y="190" as="sourcePoint" />
            <mxPoint x="320" y="100" as="targetPoint" />
          </mxGeometry>
        </mxCell>
        <mxCell id="cezJMG4lq_--6rtQeQaW-17" value="" style="endArrow=none;html=1;rounded=0;entryX=0.115;entryY=0.167;entryDx=0;entryDy=0;entryPerimeter=0;labelBackgroundColor=none;strokeColor=#A8201A;fontColor=default;" edge="1" parent="1" target="cezJMG4lq_--6rtQeQaW-7">
          <mxGeometry width="50" height="50" relative="1" as="geometry">
            <mxPoint x="170" y="210" as="sourcePoint" />
            <mxPoint x="330" y="110" as="targetPoint" />
          </mxGeometry>
        </mxCell>
        <mxCell id="cezJMG4lq_--6rtQeQaW-18" value="" style="endArrow=none;html=1;rounded=0;exitX=0.915;exitY=0.733;exitDx=0;exitDy=0;exitPerimeter=0;labelBackgroundColor=none;strokeColor=#A8201A;fontColor=default;" edge="1" parent="1" source="cezJMG4lq_--6rtQeQaW-3">
          <mxGeometry width="50" height="50" relative="1" as="geometry">
            <mxPoint x="430" y="80" as="sourcePoint" />
            <mxPoint x="600" y="240" as="targetPoint" />
          </mxGeometry>
        </mxCell>
        <mxCell id="cezJMG4lq_--6rtQeQaW-19" value="" style="endArrow=none;html=1;rounded=0;exitX=0.962;exitY=0.5;exitDx=0;exitDy=0;exitPerimeter=0;labelBackgroundColor=none;strokeColor=#A8201A;fontColor=default;" edge="1" parent="1" source="cezJMG4lq_--6rtQeQaW-5">
          <mxGeometry width="50" height="50" relative="1" as="geometry">
            <mxPoint x="430" y="150" as="sourcePoint" />
            <mxPoint x="580" y="270" as="targetPoint" />
          </mxGeometry>
        </mxCell>
        <mxCell id="cezJMG4lq_--6rtQeQaW-20" value="" style="endArrow=none;html=1;rounded=0;exitX=0.962;exitY=0.5;exitDx=0;exitDy=0;exitPerimeter=0;labelBackgroundColor=none;strokeColor=#A8201A;fontColor=default;" edge="1" parent="1" source="cezJMG4lq_--6rtQeQaW-6">
          <mxGeometry width="50" height="50" relative="1" as="geometry">
            <mxPoint x="430" y="150" as="sourcePoint" />
            <mxPoint x="580" y="270" as="targetPoint" />
          </mxGeometry>
        </mxCell>
        <mxCell id="cezJMG4lq_--6rtQeQaW-21" value="" style="endArrow=none;html=1;rounded=0;labelBackgroundColor=none;strokeColor=#A8201A;fontColor=default;" edge="1" parent="1">
          <mxGeometry width="50" height="50" relative="1" as="geometry">
            <mxPoint x="420" y="280" as="sourcePoint" />
            <mxPoint x="590" y="280" as="targetPoint" />
          </mxGeometry>
        </mxCell>
        <mxCell id="cezJMG4lq_--6rtQeQaW-22" value="" style="endArrow=none;html=1;rounded=0;exitX=0.962;exitY=0.333;exitDx=0;exitDy=0;exitPerimeter=0;labelBackgroundColor=none;strokeColor=#A8201A;fontColor=default;" edge="1" parent="1" source="cezJMG4lq_--6rtQeQaW-8">
          <mxGeometry width="50" height="50" relative="1" as="geometry">
            <mxPoint x="450" y="170" as="sourcePoint" />
            <mxPoint x="600" y="290" as="targetPoint" />
          </mxGeometry>
        </mxCell>
        <mxCell id="cezJMG4lq_--6rtQeQaW-23" value="" style="endArrow=none;html=1;rounded=0;exitX=1;exitY=0;exitDx=0;exitDy=0;labelBackgroundColor=none;strokeColor=#A8201A;fontColor=default;" edge="1" parent="1" source="cezJMG4lq_--6rtQeQaW-9">
          <mxGeometry width="50" height="50" relative="1" as="geometry">
            <mxPoint x="430" y="490" as="sourcePoint" />
            <mxPoint x="610" y="300" as="targetPoint" />
          </mxGeometry>
        </mxCell>
        <mxCell id="cezJMG4lq_--6rtQeQaW-26" value="" style="endArrow=none;html=1;rounded=0;entryX=0.038;entryY=0.5;entryDx=0;entryDy=0;entryPerimeter=0;labelBackgroundColor=none;strokeColor=#A8201A;fontColor=default;" edge="1" parent="1" target="cezJMG4lq_--6rtQeQaW-8">
          <mxGeometry width="50" height="50" relative="1" as="geometry">
            <mxPoint x="160" y="400" as="sourcePoint" />
            <mxPoint x="460" y="220" as="targetPoint" />
          </mxGeometry>
        </mxCell>
        <mxCell id="cezJMG4lq_--6rtQeQaW-27" value="" style="endArrow=none;html=1;rounded=0;entryX=0.038;entryY=0.333;entryDx=0;entryDy=0;entryPerimeter=0;labelBackgroundColor=none;strokeColor=#A8201A;fontColor=default;" edge="1" parent="1" target="cezJMG4lq_--6rtQeQaW-9">
          <mxGeometry width="50" height="50" relative="1" as="geometry">
            <mxPoint x="160" y="450" as="sourcePoint" />
            <mxPoint x="310" y="440" as="targetPoint" />
          </mxGeometry>
        </mxCell>
      </root>
    </mxGraphModel>
  </diagram>
  <diagram id="axOoCvaHJxL7piKwYdw1" name="Página-3">
    <mxGraphModel dx="1158" dy="628" grid="1" gridSize="10" guides="1" tooltips="1" connect="1" arrows="1" fold="1" page="1" pageScale="1" pageWidth="827" pageHeight="1169" math="0" shadow="0">
      <root>
        <mxCell id="0" />
        <mxCell id="1" parent="0" />
        <mxCell id="4CplXu-pJr_EE2VycKcO-1" value="Cliente" style="shape=umlActor;verticalLabelPosition=bottom;verticalAlign=top;html=1;outlineConnect=0;" vertex="1" parent="1">
          <mxGeometry x="40" y="300" width="30" height="60" as="geometry" />
        </mxCell>
        <mxCell id="4CplXu-pJr_EE2VycKcO-2" value="Bom dia, tenho uma reserva." style="ellipse;whiteSpace=wrap;html=1;" vertex="1" parent="1">
          <mxGeometry x="280" y="130" width="160" height="90" as="geometry" />
        </mxCell>
        <mxCell id="4CplXu-pJr_EE2VycKcO-3" value="Recepcionista" style="shape=umlActor;verticalLabelPosition=bottom;verticalAlign=top;html=1;outlineConnect=0;" vertex="1" parent="1">
          <mxGeometry x="610" y="290" width="30" height="60" as="geometry" />
        </mxCell>
        <mxCell id="4CplXu-pJr_EE2VycKcO-5" value="Olá! Claro, posso ver sua reserva. Qual é o seu nome?" style="ellipse;whiteSpace=wrap;html=1;" vertex="1" parent="1">
          <mxGeometry x="280" y="240" width="170" height="90" as="geometry" />
        </mxCell>
        <mxCell id="4CplXu-pJr_EE2VycKcO-6" value="" style="endArrow=none;html=1;rounded=0;entryX=0;entryY=0.667;entryDx=0;entryDy=0;entryPerimeter=0;" edge="1" parent="1" target="4CplXu-pJr_EE2VycKcO-2">
          <mxGeometry width="50" height="50" relative="1" as="geometry">
            <mxPoint x="120" y="300" as="sourcePoint" />
            <mxPoint x="530" y="190" as="targetPoint" />
          </mxGeometry>
        </mxCell>
        <mxCell id="4CplXu-pJr_EE2VycKcO-7" value="" style="endArrow=none;html=1;rounded=0;exitX=1;exitY=0.5;exitDx=0;exitDy=0;" edge="1" parent="1" source="4CplXu-pJr_EE2VycKcO-5">
          <mxGeometry width="50" height="50" relative="1" as="geometry">
            <mxPoint x="460" y="270" as="sourcePoint" />
            <mxPoint x="590" y="310" as="targetPoint" />
          </mxGeometry>
        </mxCell>
        <mxCell id="4CplXu-pJr_EE2VycKcO-9" value="&quot;Meu nome é João Silva.&quot;" style="ellipse;whiteSpace=wrap;html=1;" vertex="1" parent="1">
          <mxGeometry x="280" y="360" width="180" height="70" as="geometry" />
        </mxCell>
        <mxCell id="4CplXu-pJr_EE2VycKcO-10" value="" style="endArrow=none;html=1;rounded=0;entryX=0;entryY=0;entryDx=0;entryDy=0;" edge="1" parent="1" target="4CplXu-pJr_EE2VycKcO-9">
          <mxGeometry width="50" height="50" relative="1" as="geometry">
            <mxPoint x="120" y="350" as="sourcePoint" />
            <mxPoint x="270" y="360" as="targetPoint" />
          </mxGeometry>
        </mxCell>
        <mxCell id="4CplXu-pJr_EE2VycKcO-11" value="&quot;Deixe-me confirmar a sua reserva... Sim, encontrei. O senhor ficará no quarto 302.&quot;" style="ellipse;whiteSpace=wrap;html=1;" vertex="1" parent="1">
          <mxGeometry x="275" y="450" width="185" height="101" as="geometry" />
        </mxCell>
        <mxCell id="4CplXu-pJr_EE2VycKcO-12" value="" style="endArrow=none;html=1;rounded=0;exitX=0.892;exitY=0.208;exitDx=0;exitDy=0;exitPerimeter=0;" edge="1" parent="1" source="4CplXu-pJr_EE2VycKcO-11">
          <mxGeometry width="50" height="50" relative="1" as="geometry">
            <mxPoint x="450" y="480" as="sourcePoint" />
            <mxPoint x="590" y="370" as="targetPoint" />
          </mxGeometry>
        </mxCell>
        <mxCell id="4CplXu-pJr_EE2VycKcO-13" value="&quot;Tudo certo. Qual é o horário do café da manhã?&quot;" style="ellipse;whiteSpace=wrap;html=1;" vertex="1" parent="1">
          <mxGeometry x="270" y="570" width="170" height="80" as="geometry" />
        </mxCell>
        <mxCell id="4CplXu-pJr_EE2VycKcO-14" value="" style="endArrow=none;html=1;rounded=0;entryX=0.118;entryY=0.25;entryDx=0;entryDy=0;entryPerimeter=0;" edge="1" parent="1" target="4CplXu-pJr_EE2VycKcO-13">
          <mxGeometry width="50" height="50" relative="1" as="geometry">
            <mxPoint x="90" y="390" as="sourcePoint" />
            <mxPoint x="520" y="420" as="targetPoint" />
          </mxGeometry>
        </mxCell>
        <mxCell id="4CplXu-pJr_EE2VycKcO-15" value="O café da manhã é servido das 6h às 10h. Aqui está a chave do seu quarto.&quot;" style="ellipse;whiteSpace=wrap;html=1;" vertex="1" parent="1">
          <mxGeometry x="255" y="660" width="215" height="90" as="geometry" />
        </mxCell>
      </root>
    </mxGraphModel>
  </diagram>
  <diagram id="KCkjbRwzoSoCNFjZY2WP" name="Página-4">
    <mxGraphModel dx="1042" dy="565" grid="1" gridSize="10" guides="1" tooltips="1" connect="1" arrows="1" fold="1" page="1" pageScale="1" pageWidth="827" pageHeight="1169" math="0" shadow="0">
      <root>
        <mxCell id="0" />
        <mxCell id="1" parent="0" />
        <mxCell id="LnY1HXSTbXzUq6UhFI9I-1" value="cliente" style="shape=umlActor;verticalLabelPosition=bottom;verticalAlign=top;html=1;outlineConnect=0;labelBackgroundColor=none;fillColor=#F694C1;strokeColor=#AF45ED;fontColor=#095C86;" vertex="1" parent="1">
          <mxGeometry x="20" y="80" width="30" height="60" as="geometry" />
        </mxCell>
        <mxCell id="LnY1HXSTbXzUq6UhFI9I-3" value="recepcionista" style="shape=umlActor;verticalLabelPosition=bottom;verticalAlign=top;html=1;outlineConnect=0;labelBackgroundColor=none;fillColor=#F694C1;strokeColor=#AF45ED;fontColor=#095C86;" vertex="1" parent="1">
          <mxGeometry x="670" y="260" width="30" height="60" as="geometry" />
        </mxCell>
        <mxCell id="GIeaUwmBdY-rW4R5i_A3-2" value="&lt;span data-end=&quot;520&quot; data-start=&quot;495&quot;&gt;&lt;i style=&quot;&quot;&gt;Solicitar informações&lt;/i&gt;&lt;/span&gt;" style="ellipse;whiteSpace=wrap;html=1;labelBackgroundColor=none;fillColor=#F694C1;strokeColor=#AF45ED;fontColor=#095C86;" vertex="1" parent="1">
          <mxGeometry x="260" y="130" width="130" height="70" as="geometry" />
        </mxCell>
        <mxCell id="GIeaUwmBdY-rW4R5i_A3-3" value="Realizar check-in" style="ellipse;whiteSpace=wrap;html=1;labelBackgroundColor=none;fillColor=#F694C1;strokeColor=#AF45ED;fontColor=#095C86;" vertex="1" parent="1">
          <mxGeometry x="265" y="240" width="120" height="50" as="geometry" />
        </mxCell>
        <mxCell id="GIeaUwmBdY-rW4R5i_A3-4" value="Confirmar reserva" style="ellipse;whiteSpace=wrap;html=1;labelBackgroundColor=none;fillColor=#F694C1;strokeColor=#AF45ED;fontColor=#095C86;" vertex="1" parent="1">
          <mxGeometry x="265" y="310" width="120" height="40" as="geometry" />
        </mxCell>
        <mxCell id="GIeaUwmBdY-rW4R5i_A3-7" value="" style="endArrow=none;html=1;rounded=0;entryX=0.5;entryY=0;entryDx=0;entryDy=0;exitX=0.5;exitY=1;exitDx=0;exitDy=0;labelBackgroundColor=none;strokeColor=#60E696;fontColor=default;" edge="1" parent="1" source="GIeaUwmBdY-rW4R5i_A3-2" target="GIeaUwmBdY-rW4R5i_A3-3">
          <mxGeometry width="50" height="50" relative="1" as="geometry">
            <mxPoint x="370" y="110" as="sourcePoint" />
            <mxPoint x="440" y="270" as="targetPoint" />
          </mxGeometry>
        </mxCell>
        <mxCell id="GIeaUwmBdY-rW4R5i_A3-9" value="Atribuir quarto" style="ellipse;whiteSpace=wrap;html=1;labelBackgroundColor=none;fillColor=#F694C1;strokeColor=#AF45ED;fontColor=#095C86;" vertex="1" parent="1">
          <mxGeometry x="260" y="385" width="130" height="30" as="geometry" />
        </mxCell>
        <mxCell id="GIeaUwmBdY-rW4R5i_A3-16" value="" style="endArrow=none;html=1;rounded=0;exitX=0.5;exitY=0;exitDx=0;exitDy=0;entryX=0.5;entryY=1;entryDx=0;entryDy=0;labelBackgroundColor=none;strokeColor=#60E696;fontColor=default;" edge="1" parent="1" source="GIeaUwmBdY-rW4R5i_A3-4" target="GIeaUwmBdY-rW4R5i_A3-3">
          <mxGeometry width="50" height="50" relative="1" as="geometry">
            <mxPoint x="380" y="310" as="sourcePoint" />
            <mxPoint x="430" y="260" as="targetPoint" />
          </mxGeometry>
        </mxCell>
        <mxCell id="GIeaUwmBdY-rW4R5i_A3-18" value="" style="endArrow=none;html=1;rounded=0;exitX=0.5;exitY=0;exitDx=0;exitDy=0;entryX=0.5;entryY=1;entryDx=0;entryDy=0;labelBackgroundColor=none;strokeColor=#60E696;fontColor=default;" edge="1" parent="1" source="GIeaUwmBdY-rW4R5i_A3-9" target="GIeaUwmBdY-rW4R5i_A3-4">
          <mxGeometry width="50" height="50" relative="1" as="geometry">
            <mxPoint x="380" y="310" as="sourcePoint" />
            <mxPoint x="430" y="260" as="targetPoint" />
          </mxGeometry>
        </mxCell>
        <mxCell id="GIeaUwmBdY-rW4R5i_A3-26" value="" style="endArrow=none;html=1;rounded=0;exitX=1;exitY=0.5;exitDx=0;exitDy=0;exitPerimeter=0;labelBackgroundColor=none;strokeColor=#60E696;fontColor=default;" edge="1" parent="1" source="GIeaUwmBdY-rW4R5i_A3-9">
          <mxGeometry width="50" height="50" relative="1" as="geometry">
            <mxPoint x="310" y="350" as="sourcePoint" />
            <mxPoint x="630" y="310" as="targetPoint" />
          </mxGeometry>
        </mxCell>
        <mxCell id="GIeaUwmBdY-rW4R5i_A3-27" value="" style="endArrow=none;html=1;rounded=0;entryX=0.154;entryY=0.167;entryDx=0;entryDy=0;entryPerimeter=0;labelBackgroundColor=none;strokeColor=#60E696;fontColor=default;" edge="1" parent="1" target="GIeaUwmBdY-rW4R5i_A3-9">
          <mxGeometry width="50" height="50" relative="1" as="geometry">
            <mxPoint x="70" y="130" as="sourcePoint" />
            <mxPoint x="270" y="380" as="targetPoint" />
          </mxGeometry>
        </mxCell>
        <mxCell id="GIeaUwmBdY-rW4R5i_A3-28" value="" style="endArrow=none;html=1;rounded=0;entryX=1;entryY=0.5;entryDx=0;entryDy=0;labelBackgroundColor=none;strokeColor=#60E696;fontColor=default;" edge="1" parent="1" target="GIeaUwmBdY-rW4R5i_A3-4">
          <mxGeometry width="50" height="50" relative="1" as="geometry">
            <mxPoint x="600" y="300" as="sourcePoint" />
            <mxPoint x="270" y="350" as="targetPoint" />
          </mxGeometry>
        </mxCell>
        <mxCell id="GIeaUwmBdY-rW4R5i_A3-32" value="" style="endArrow=none;html=1;rounded=0;entryX=0.042;entryY=-4;entryDx=0;entryDy=0;entryPerimeter=0;labelBackgroundColor=none;strokeColor=#60E696;fontColor=default;" edge="1" parent="1" target="GIeaUwmBdY-rW4R5i_A3-4">
          <mxGeometry width="50" height="50" relative="1" as="geometry">
            <mxPoint x="90" y="110" as="sourcePoint" />
            <mxPoint x="270" y="350" as="targetPoint" />
          </mxGeometry>
        </mxCell>
        <mxCell id="GIeaUwmBdY-rW4R5i_A3-33" value="" style="endArrow=none;html=1;rounded=0;exitX=1;exitY=0.5;exitDx=0;exitDy=0;labelBackgroundColor=none;strokeColor=#60E696;fontColor=default;" edge="1" parent="1" source="GIeaUwmBdY-rW4R5i_A3-2">
          <mxGeometry width="50" height="50" relative="1" as="geometry">
            <mxPoint x="400" y="170" as="sourcePoint" />
            <mxPoint x="620" y="270" as="targetPoint" />
          </mxGeometry>
        </mxCell>
        <mxCell id="GIeaUwmBdY-rW4R5i_A3-34" value="" style="endArrow=none;html=1;rounded=0;labelBackgroundColor=none;strokeColor=#60E696;fontColor=default;" edge="1" parent="1">
          <mxGeometry width="50" height="50" relative="1" as="geometry">
            <mxPoint x="610" y="290" as="sourcePoint" />
            <mxPoint x="390" y="260" as="targetPoint" />
          </mxGeometry>
        </mxCell>
      </root>
    </mxGraphModel>
  </diagram>
</mxfile>
